<svg width="1497" height="550" viewBox="0 0 1497 550" fill="none" xmlns="http://www.w3.org/2000/svg">
<path d="M341.414 35.594V371.195H302.769V160.173L307.346 71.6966H306.837L196.496 371.195H161.919L51.5771 71.6966H51.0686L55.645 160.173V371.195H17V35.594H79.5438L153.274 239.497L178.699 323.397H179.716L205.648 240.006L278.87 35.594H341.414Z" fill="white"/>
<path d="M453.543 68.1372C444.391 68.1372 436.933 65.4252 431.17 60.0014C425.746 54.2385 423.034 46.7807 423.034 37.628C423.034 28.4752 425.746 21.1869 431.17 15.7631C436.933 10.0002 444.391 7.11881 453.543 7.11881C462.696 7.11881 469.985 10.0002 475.408 15.7631C481.171 21.1869 484.053 28.4752 484.053 37.628C484.053 46.7807 481.171 54.2385 475.408 60.0014C469.985 65.4252 462.696 68.1372 453.543 68.1372ZM473.883 116.952V371.195H433.204V155.5L473.883 116.952Z" fill="white"/>
<path d="M596.746 0V306.617C596.746 319.499 599.119 328.482 603.865 333.567C608.611 338.313 616.238 340.686 626.747 340.686C633.526 340.686 639.12 340.177 643.527 339.16C647.934 338.143 653.866 336.279 661.324 333.567L654.713 369.161C649.29 371.534 643.357 373.229 636.916 374.246C630.476 375.602 623.865 376.28 617.085 376.28C596.407 376.28 580.983 370.687 570.813 359.5C560.982 348.313 556.067 331.194 556.067 308.143V38.5L596.746 0Z" fill="white"/>
<path d="M851.835 206.954C851.835 187.97 846.75 173.394 836.581 163.224C826.411 152.715 812.004 147.461 793.359 147.461C775.732 147.461 760.816 151.359 748.612 159.156C736.409 166.614 727.426 178.818 721.663 195.767L688.611 175.428C695.391 156.444 707.934 141.19 726.239 129.664C744.545 117.799 767.257 111.867 794.376 111.867C812.682 111.867 829.292 115.087 844.208 121.528C859.124 127.63 870.819 137.122 879.294 150.003C888.107 162.546 892.514 178.818 892.514 198.818V321.872C892.514 334.076 898.955 340.177 911.837 340.177C918.277 340.177 924.549 339.33 930.651 337.635L928.617 369.67C921.837 373.059 913.023 374.754 902.175 374.754C892.345 374.754 883.531 372.89 875.734 369.161C867.937 365.432 861.835 359.839 857.429 352.381C853.022 344.584 850.818 334.923 850.818 323.397V318.312L860.988 319.838C856.92 333.059 849.971 343.906 840.14 352.381C830.309 360.517 819.292 366.619 807.089 370.687C794.885 374.415 782.851 376.28 770.986 376.28C756.07 376.28 742.172 373.737 729.29 368.653C716.408 363.568 706.069 355.94 698.272 345.771C690.815 335.262 687.086 322.38 687.086 307.126C687.086 288.142 693.357 272.549 705.9 260.345C718.781 247.802 736.578 239.328 759.291 234.921L836.581 221.364L825.631 254.106L778.105 265.43C761.494 268.82 749.121 273.566 740.985 279.667C732.849 285.769 728.782 294.244 728.782 305.092C728.782 315.6 732.849 324.245 740.985 331.025C749.46 337.465 761.325 340.686 776.579 340.686C786.41 340.686 795.732 339.499 804.546 337.126C813.699 334.414 821.835 330.516 828.953 325.431C836.072 320.007 841.666 313.397 845.733 305.6C849.801 297.465 851.835 287.973 851.835 277.125V206.954Z" fill="white"/>
<path d="M981.197 371.195V116.952H1014.25L1019.84 158.648C1026.96 143.054 1037.3 131.359 1050.86 123.562C1064.76 115.765 1081.54 111.867 1101.2 111.867C1105.61 111.867 1110.35 112.206 1115.44 112.884C1120.86 113.562 1125.44 114.918 1129.17 116.952L1122.05 154.071C1118.32 152.715 1114.25 151.698 1109.84 151.02C1105.44 150.342 1099.17 150.003 1091.03 150.003C1080.52 150.003 1069.84 153.054 1059 159.156C1048.49 165.258 1039.67 174.58 1032.55 187.123C1025.44 199.327 1021.88 214.92 1021.88 233.904V371.195H981.197Z" fill="white"/>
<path d="M1198.93 68.1372C1189.78 68.1372 1182.32 65.4252 1176.56 60.0014C1171.14 54.2385 1168.42 46.7807 1168.42 37.628C1168.42 28.4752 1171.14 21.1869 1176.56 15.7631C1182.32 10.0002 1189.78 7.11881 1198.93 7.11881C1208.09 7.11881 1215.37 10.0002 1220.8 15.7631C1226.56 21.1869 1229.44 28.4752 1229.44 37.628C1229.44 46.7807 1226.56 54.2385 1220.8 60.0014C1215.37 65.4252 1208.09 68.1372 1198.93 68.1372ZM1219.27 116.952V371.195H1178.59V155.5L1219.27 116.952Z" fill="white"/>
<path d="M1395.02 376.28C1370.27 376.28 1347.39 371.026 1326.37 360.517C1305.69 350.008 1289.76 335.092 1278.57 315.77L1313.15 290.854C1320.61 306.448 1331.46 318.651 1345.69 327.465C1360.27 336.279 1377.73 340.686 1398.07 340.686C1416.04 340.686 1430.1 337.296 1440.27 330.516C1450.44 323.397 1455.53 314.245 1455.53 303.058C1455.53 295.939 1453.15 289.498 1448.41 283.735C1444 277.634 1435.36 273.227 1422.48 270.515L1361.46 257.803C1336.71 252.718 1318.91 244.243 1308.07 232.378C1297.56 220.514 1292.3 205.767 1292.3 188.14C1292.3 174.241 1296.2 161.529 1304 150.003C1312.13 138.478 1323.49 129.325 1338.07 122.545C1352.98 115.426 1370.44 111.867 1390.44 111.867C1415.53 111.867 1436.71 116.782 1454 126.613C1471.29 136.444 1484.17 150.342 1492.65 168.309L1458.58 190.682C1452.82 175.767 1443.49 164.919 1430.61 158.139C1417.73 151.02 1404.34 147.461 1390.44 147.461C1378.24 147.461 1367.73 149.156 1358.92 152.546C1350.44 155.936 1343.83 160.682 1339.08 166.784C1334.68 172.546 1332.47 179.157 1332.47 186.614C1332.47 194.072 1335.02 201.022 1340.1 207.462C1345.19 213.564 1354.68 217.971 1368.58 220.683L1432.14 233.904C1455.87 238.65 1472.48 246.446 1481.97 257.294C1491.46 268.142 1496.21 281.362 1496.21 296.956C1496.21 312.889 1491.97 326.957 1483.49 339.16C1475.02 351.025 1463.16 360.178 1447.9 366.619C1432.65 373.059 1415.02 376.28 1395.02 376.28Z" fill="white"/>
<path d="M54.6193 436.394C62.3979 436.394 69.1055 437.747 74.7422 440.452C80.3789 443.045 84.7191 446.765 87.7629 451.613C90.9194 456.461 92.4977 462.266 92.4977 469.03C92.4977 475.907 90.9194 481.769 87.7629 486.617C84.7191 491.464 80.3789 495.241 74.7422 497.946C69.1055 500.539 62.3979 501.836 54.6193 501.836H26.0414V548H17.5864V436.394H54.6193ZM53.6047 493.888C63.4125 493.888 70.8529 491.746 75.9259 487.462C80.9989 483.066 83.5354 476.922 83.5354 469.03C83.5354 461.139 80.9989 455.051 75.9259 450.767C70.8529 446.371 63.4125 444.173 53.6047 444.173H26.0414V493.888H53.6047ZM194.621 548H185.659L171.623 512.996H118.357L104.321 548H95.3592L140.002 436.394H149.978L194.621 548ZM121.401 505.218H168.58L144.905 444.68L121.401 505.218ZM256.85 436.394C268.01 436.394 276.86 439.212 283.398 444.849C290.05 450.486 293.375 458.208 293.375 468.016C293.375 477.823 290.05 485.489 283.398 491.013C276.747 496.424 267.841 499.13 256.681 499.13L255.835 499.637H223.875V548H215.42V436.394H256.85ZM256.681 491.69C265.699 491.69 272.576 489.66 277.311 485.602C282.158 481.544 284.582 475.682 284.582 468.016C284.582 460.35 282.158 454.488 277.311 450.429C272.576 446.258 265.699 444.173 256.681 444.173H223.875V491.69H256.681ZM263.276 493.212L299.294 548H289.317L256.173 497.946L263.276 493.212ZM396.212 436.394V444.173H355.459V548H347.004V444.173H306.251V436.394H396.212ZM503.281 436.394V548H492.797L433.612 460.406L425.326 446.033H425.157L425.664 459.561V548H417.548V436.394H428.201L487.217 523.819L495.672 538.361L495.334 524.833V436.394H503.281ZM538.428 548V436.394H614.692V444.173H546.883V487.293H600.487V495.241H546.883V540.221H617.397V548H538.428ZM683.398 436.394C694.558 436.394 703.408 439.212 709.947 444.849C716.598 450.486 719.923 458.208 719.923 468.016C719.923 477.823 716.598 485.489 709.947 491.013C703.295 496.424 694.389 499.13 683.229 499.13L682.383 499.637H650.423V548H641.968V436.394H683.398ZM683.229 491.69C692.247 491.69 699.124 489.66 703.859 485.602C708.706 481.544 711.13 475.682 711.13 468.016C711.13 460.35 708.706 454.488 703.859 450.429C699.124 446.258 692.247 444.173 683.229 444.173H650.423V491.69H683.229ZM689.824 493.212L725.842 548H715.865L682.721 497.946L689.824 493.212ZM784.629 434.703C794.888 434.703 803.512 436.732 810.502 440.791C817.604 444.849 823.015 451.049 826.735 459.392L819.633 464.803C816.364 456.911 811.742 451.218 805.767 447.724C799.905 444.229 792.633 442.482 783.953 442.482C777.302 442.482 771.665 443.553 767.043 445.694C762.421 447.724 758.87 450.486 756.39 453.98C754.022 457.362 752.839 461.195 752.839 465.479C752.839 470.665 754.53 474.949 757.912 478.331C761.294 481.713 767.494 484.418 776.513 486.448L798.496 491.182C809.431 493.55 817.097 496.988 821.493 501.497C826.002 505.894 828.257 511.587 828.257 518.577C828.257 524.664 826.453 530.075 822.846 534.81C819.351 539.545 814.504 543.209 808.303 545.802C802.103 548.395 794.832 549.691 786.489 549.691C778.485 549.691 771.327 548.62 765.014 546.478C758.813 544.223 753.571 541.123 749.287 537.178C745.004 533.119 741.847 528.272 739.818 522.635L747.258 516.886C748.836 522.184 751.429 526.75 755.037 530.583C758.757 534.303 763.323 537.121 768.734 539.038C774.145 540.954 780.176 541.912 786.828 541.912C793.141 541.912 798.777 541.067 803.738 539.376C808.698 537.572 812.531 534.979 815.236 531.597C818.055 528.215 819.464 524.044 819.464 519.084C819.464 514.349 817.773 510.347 814.391 507.078C811.122 503.809 805.26 501.328 796.805 499.637L773.807 494.564C766.705 492.986 760.955 490.901 756.559 488.308C752.162 485.715 748.949 482.615 746.92 479.007C745.004 475.287 744.045 471.116 744.045 466.494C744.045 460.744 745.68 455.502 748.949 450.767C752.218 445.92 756.897 442.031 762.985 439.1C769.072 436.169 776.287 434.703 784.629 434.703Z" fill="white"/>
</svg>
